HIERARCHY
ROOT Hips
{
  OFFSET 0 89.5177 0.535
  CHANNELS 6 Xposition Yposition Zposition Zrotation Xrotation Yrotation
  JOINT Spine
  {
    OFFSET 12.0259 -0.162855 1.69034e-005
    CHANNELS 3 Zrotation Xrotation Yrotation
    JOINT Spine1
    {
      OFFSET 15.3169 -0.0121922 0
      CHANNELS 3 Zrotation Xrotation Yrotation
      JOINT Spine2
      {
        OFFSET 15.3176 -0.0121908 0
        CHANNELS 3 Zrotation Xrotation Yrotation
        JOINT Neck
        {
          OFFSET 19.9142 1.56338 0
          CHANNELS 3 Zrotation Xrotation Yrotation
          JOINT Head
          {
            OFFSET 6.92651 0 0
            CHANNELS 3 Zrotation Xrotation Yrotation
            End Site
            {
              OFFSET 20.7666 0 0
            }
          }
          JOINT LeftShoulder
          {
            OFFSET -6.20654 0.708824 7.28219
            CHANNELS 3 Zrotation Xrotation Yrotation
            JOINT LeftArm
            {
              OFFSET 14.108 0 -1.52588e-005
              CHANNELS 3 Zrotation Xrotation Yrotation
              JOINT LeftForeArm
              {
                OFFSET 28.5802 0 0
                CHANNELS 3 Zrotation Xrotation Yrotation
                JOINT LeftHand
                {
                  OFFSET 27.092 0 0
                  CHANNELS 3 Zrotation Xrotation Yrotation
                  End Site
                  {
                    OFFSET 9.55928 -0.186424 0.145352
                  }
                }
              }
            }
          }
          JOINT RightShoulder
          {
            OFFSET -6.20654 0.708866 -7.28218
            CHANNELS 3 Zrotation Xrotation Yrotation
            JOINT RightArm
            {
              OFFSET 14.108 0 1.52588e-005
              CHANNELS 3 Zrotation Xrotation Yrotation
              JOINT RightForeArm
              {
                OFFSET 28.5802 0 0
                CHANNELS 3 Zrotation Xrotation Yrotation
                JOINT RightHand
                {
                  OFFSET 27.092 0 0
                  CHANNELS 3 Zrotation Xrotation Yrotation
                  End Site
                  {
                    OFFSET 9.55929 -0.186417 -0.145354
                  }
                }
              }
            }
          }
        }
      }
    }
  }
  JOINT LeftUpLeg
  {
    OFFSET 0.005 -0.535 8.837
    CHANNELS 3 Zrotation Xrotation Yrotation
    JOINT LeftLeg
    {
      OFFSET 39.9035 0 0
      CHANNELS 3 Zrotation Xrotation Yrotation
      JOINT LeftFoot
      {
        OFFSET 39.6689 0 0
        CHANNELS 3 Zrotation Xrotation Yrotation
        JOINT LeftToe
        {
          OFFSET 10.1624 13.6296 0
          CHANNELS 3 Zrotation Xrotation Yrotation
          End Site
          {
            OFFSET 8.38147 0 0
          }
        }
      }
    }
  }
  JOINT RightUpLeg
  {
    OFFSET 0.005 -0.535 -8.837
    CHANNELS 3 Zrotation Xrotation Yrotation
    JOINT RightLeg
    {
      OFFSET 39.9035 0 0
      CHANNELS 3 Zrotation Xrotation Yrotation
      JOINT RightFoot
      {
        OFFSET 39.6689 0 0
        CHANNELS 3 Zrotation Xrotation Yrotation
        JOINT RightToe
        {
          OFFSET 10.1624 13.6296 0
          CHANNELS 3 Zrotation Xrotation Yrotation
          End Site
          {
            OFFSET 8.38147 0 0
          }
        }
      }
    }
  }
}
MOTION
Frames:	17
Frame Time:	0.0333333
125.294 88.8516 -137.894 -81.2599 76.4417 173.251 1.12313 -1.08421 -1.75385 2.21316 -2.20161 -3.48691 2.21316 -2.20161 -3.48692 -8.30629e-012 -9.0191e-006 -5.27751e-005 21.7801 -4.2377 0.994874 -172.862 -22.0389 -71.545 -13.8302 -6.53117 63.2665 -22.6796 -3.18055e-015 -0 -24.5821 -46.3196 -26.7264 -175.113 17.1414 73.8215 -34.0161 -1.53676 -55.6428 -28.285 -9.54166e-015 -1.59028e-015 -65.5341 68.4445 68.767 -8.16359 38.1163 -169.35 -23.7203 0 1.59028e-015 13.9762 -0.619157 0.902897 90 0 -6.36111e-015 -13.6625 -36.3751 157.114 -23.148 3.18056e-015 -0 8.23827 5.19885 -6.87683 90 7.95139e-016 -6.36111e-015 
127.858 88.902 -138.347 -80.4159 73.7643 172.4 1.20439 -1.12079 -1.88284 2.37201 -2.27983 -3.74266 2.37201 -2.27983 -3.74267 -8.30788e-012 -9.0191e-006 -5.27751e-005 22.5395 -5.71151 2.09557 -172.683 -22.1228 -71.172 -19.0428 -6.11458 62.5043 -22.6343 6.36111e-015 3.97569e-015 -23.5065 -45.8621 -25.5774 -175.183 17.09 73.9985 -32.5988 -1.88637 -56.5674 -29.0213 -6.36111e-015 3.18055e-015 -65.3181 69.1956 68.5157 -5.99083 35.2888 -172.254 -23.6906 -1.59028e-014 -1.59028e-015 15.2977 -1.36127 2.06556 90 0 -3.18055e-015 -15.8789 -34.7206 154.383 -27.4089 -3.18056e-015 7.95139e-016 6.28409 7.56504 -9.76361 90 -3.18055e-015 -6.36111e-015 
130.155 89.0368 -138.751 -80.4837 71.1618 171.956 1.25257 -1.07806 -1.87171 2.46995 -2.19574 -3.72026 2.46994 -2.19574 -3.72027 -8.30708e-012 -9.0191e-006 -5.27751e-005 23.356 -6.86196 2.52367 -172.718 -22.1213 -71.2561 -23.5194 -5.86831 62.1401 -22.4511 4.77083e-015 2.38542e-015 -22.4731 -44.6587 -24.3387 -175.196 17.0146 73.9768 -32.2867 -2.79954 -57.0647 -28.8256 -3.18055e-015 -0 -65.1393 69.7547 68.3097 -4.75578 32.5977 -173.919 -23.7533 -9.54166e-015 -1.59028e-015 16.3095 -1.6708 2.5458 90 0 3.18055e-015 -16.7923 -32.5027 153.796 -30.7049 -9.54167e-015 3.18056e-015 3.67918 10.9585 -14.3257 90 3.18055e-015 3.18055e-015 
132.107 89.3666 -139.192 -82.7366 69.0968 173.215 1.14231 -0.966516 -1.76 2.25491 -1.967 -3.501 2.25491 -1.967 -3.50101 -8.30703e-012 -9.0191e-006 -5.27751e-005 24.1793 -7.17183 2.62939 -172.874 -22.1684 -71.668 -26.9598 -5.52846 62.0789 -22.9316 3.18055e-015 7.95139e-016 -21.5938 -43.8979 -23.3414 -175.244 16.8087 73.9481 -32.8407 -3.58499 -57.4871 -27.4785 0 -9.54166e-015 -63.6523 69.8193 66.7154 -4.01676 31.3423 -174.974 -22.2197 -6.36111e-015 -1.59028e-015 16.6703 -1.2983 1.97053 90 0 6.36111e-015 -15.4421 -28.7716 155.989 -31.517 0 2.38542e-015 2.27646 8.68134 -10.7385 90 1.59028e-015 -0 
133.801 89.7366 -139.543 -86.013 66.7213 175.361 0.932028 -0.938275 -1.61919 1.83755 -1.90192 -3.22341 1.83755 -1.90192 -3.22342 -8.30758e-012 -9.0191e-006 -5.27751e-005 25.3192 -7.04259 2.85033 -172.927 -22.3425 -71.9237 -29.7997 -4.73609 61.658 -24.4547 6.36111e-015 7.95139e-016 -20.8459 -44.7559 -22.7706 -175.199 16.7625 73.7641 -33.6419 -3.92065 -57.7275 -25.6006 0 -3.18055e-015 -59.9731 69.8136 62.7867 -3.59877 29.7572 -175.885 -20.1095 -3.18055e-015 1.59028e-015 16.5904 -0.830859 1.25168 90 1.98785e-016 3.18055e-015 -14.0469 -25.1263 159.113 -31.2382 -1.59028e-015 -2.38542e-015 2.13439 4.19101 -5.13642 90 4.77083e-015 -1.59028e-015 
135.419 90.0064 -139.735 -87.7988 63.8357 176.323 0.816844 -0.980075 -1.54955 1.60725 -1.98131 -3.08549 1.60725 -1.98131 -3.0855 -8.30688e-012 -9.0191e-006 -5.27751e-005 26.3824 -7.00459 3.50863 -172.987 -22.5447 -72.2102 -31.7635 -3.76665 60.9865 -26.5258 0 -0 -20.4336 -46.3925 -22.6377 -175.081 16.8551 73.4686 -34.1045 -3.97591 -58.1314 -23.882 6.36111e-015 3.18055e-015 -58.1796 69.5156 60.8767 -2.56644 27.6375 -176.926 -17.9417 3.18055e-015 1.59028e-015 16.4542 -0.395388 0.576082 90 -8.69683e-017 -6.36111e-015 -13.7178 -22.8404 161.668 -31.8736 2.18663e-015 -1.09332e-015 2.35669 2.11169 -2.88173 90 8.94531e-016 3.97569e-016 
137.091 90.2422 -139.808 -88.313 60.6437 176.226 0.835111 -1.07156 -1.50107 1.6423 -2.16405 -2.98699 1.6423 -2.16405 -2.987 -8.30788e-012 -9.0191e-006 -5.27751e-005 26.8925 -7.13544 4.31288 -173.163 -22.5338 -72.6261 -32.2701 -3.19274 60.4473 -28.6149 1.59028e-015 -0 -20.6395 -47.9796 -23.0828 -175.028 16.8299 73.2762 -34.0848 -3.98614 -58.6831 -22.8862 9.54166e-015 3.18055e-015 -57.9247 69.568 60.6096 -0.789148 25.2086 -178.011 -15.4813 3.18055e-015 1.59028e-015 16.1491 0.0391646 -0.101831 90 0 -6.36111e-015 -13.1602 -21.6881 164.242 -31.9482 1.59028e-015 3.97569e-016 3.31854 2.00422 -3.03967 90 3.08116e-015 -0 
138.777 90.3574 -139.845 -88.8488 57.4425 176.372 0.864478 -1.16011 -1.48404 1.69915 -2.34161 -2.95117 1.69915 -2.34161 -2.95118 -8.30708e-012 -9.0191e-006 -5.27751e-005 27.0276 -7.59262 5.16835 -173.2 -22.5845 -72.7509 -32.393 -3.05138 59.5193 -30.1552 3.18055e-015 3.18055e-015 -20.7785 -49.4429 -23.4382 -174.985 16.8793 73.185 -34.1236 -4.03144 -59.3272 -22.5865 3.18055e-015 3.18055e-015 -57.8447 69.7415 60.5286 0.925803 22.8359 -179.091 -13.217 -9.54166e-015 -2.38542e-015 15.9392 0.547409 -0.897081 90 -7.95139e-016 -9.54166e-015 -13.1995 -21.3557 166.608 -31.7469 1.59028e-015 1.59028e-015 4.69044 3.09643 -4.73333 90 -3.18055e-015 -7.95139e-016 
140.37 90.3645 -139.92 -89.8746 54.0296 177.045 0.842817 -1.29784 -1.47688 1.65254 -2.61637 -2.93548 1.65254 -2.61637 -2.93549 -8.30828e-012 -9.0191e-006 -5.27751e-005 27.0465 -8.29418 5.9932 -173.194 -22.6356 -72.7709 -31.942 -3.5879 58.5239 -30.6204 -3.18055e-015 -0 -21.3461 -50.5313 -24.1625 -174.969 16.9322 73.1816 -34.2384 -4.08516 -60.2526 -22.9621 3.18055e-015 -0 -60.1616 69.4037 62.9924 1.87291 20.5233 -179.899 -11.6422 3.18055e-015 -0 16.0124 1.31107 -2.09833 90 1.19271e-015 6.36111e-015 -13.6459 -21.0753 169.066 -30.8162 -1.59028e-015 -0 5.75459 4.02 -6.18273 90 -7.95139e-016 3.18055e-015 
141.875 90.3278 -140.002 -91.1276 50.4812 177.889 0.759426 -1.45187 -1.46281 1.48225 -2.92207 -2.9075 1.48225 -2.92207 -2.90751 -8.30947e-012 -9.0191e-006 -5.27751e-005 27.3222 -9.14798 6.65926 -173.309 -22.5505 -72.9911 -30.3297 -5.17166 58.1425 -29.6441 3.18055e-015 -3.18055e-015 -22.1872 -50.7551 -25.0504 -174.967 16.9271 73.1698 -33.4428 -4.19088 -61.391 -24.1164 -3.18055e-015 3.18055e-015 -61.8273 69.1829 64.7738 2.18734 18.058 179.529 -10.6555 -1.27222e-014 -1.59028e-015 16.1586 2.0584 -3.27663 90 0 -0 -14.1883 -20.2614 171.614 -29.1409 -3.18056e-015 -7.95139e-016 7.0563 3.54063 -5.46871 90 -1.19271e-015 -0 
143.378 90.2424 -140.019 -92.4859 46.76 178.791 0.62793 -1.66168 -1.41994 1.21524 -3.33784 -2.82321 1.21524 -3.33784 -2.82322 -8.30748e-012 -9.0191e-006 -5.27751e-005 27.6605 -10.0084 7.25325 -173.487 -22.4104 -73.3292 -27.9277 -7.43846 58.322 -27.5081 6.36111e-015 -0 -23.2342 -50.2882 -26.0506 -174.916 16.9789 73.0579 -31.3681 -3.27012 -62.5461 -23.9862 1.27222e-014 -3.18055e-015 -63.3714 69.4093 66.4258 2.09878 15.641 179.134 -10.1407 3.18055e-015 1.59028e-015 16.5094 2.95824 -4.70188 90 0 6.36111e-015 -14.9671 -19.371 174.027 -26.8067 3.18056e-015 3.18056e-015 8.15763 2.3221 -3.60397 90 4.96962e-016 -0 
144.948 90.1316 -139.942 -93.8082 42.5935 179.447 0.448361 -1.98521 -1.28558 0.852797 -3.97946 -2.55771 0.852797 -3.97946 -2.55772 -8.30788e-012 -9.0191e-006 -5.27751e-005 27.9398 -10.8318 7.60718 -173.704 -22.2023 -73.7222 -24.6941 -9.77414 59.1542 -24.8968 0 -3.18055e-015 -24.4486 -49.0019 -27.0836 -174.898 16.8295 72.8619 -25.4034 -0.678182 -63.7602 -21.8047 6.36111e-015 3.18055e-015 -64.5273 70.2371 67.6438 1.7138 12.8037 179.015 -10.0327 0 -2.38542e-015 17.0367 3.84753 -6.11671 90 0 -0 -15.6396 -18.8922 176.403 -23.53 6.36111e-015 -0 8.52331 1.29135 -2.02298 90 3.23025e-016 -3.18055e-015 
146.61 90.0278 -139.733 -94.7753 37.9684 179.634 0.281618 -2.43015 -1.07166 0.518363 -4.86465 -2.13405 0.518363 -4.86465 -2.13406 -8.31026e-012 -9.0191e-006 -5.27751e-005 27.9574 -11.6218 7.82892 -173.959 -21.8943 -74.1557 -21.194 -11.5462 60.2186 -22.3678 -6.36111e-015 -0 -25.3963 -47.3917 -27.765 -174.648 16.9186 72.1567 -18.5729 1.42252 -64.2666 -19.4487 6.36111e-015 -6.36111e-015 -67.5983 70.5166 70.9141 1.52591 9.87321 179.202 -9.95761 -3.18055e-015 -7.95139e-016 17.6293 4.96558 -7.90903 90 0 9.54166e-015 -15.9577 -19.1739 178.564 -19.5367 0 3.97569e-016 8.2167 0.321789 -0.529789 90 -9.93923e-017 3.18055e-015 
148.338 89.9325 -139.466 -95.54 33.0848 179.574 0.152734 -2.95398 -0.824086 0.263387 -5.90937 -1.64339 0.263387 -5.90937 -1.6434 -8.30828e-012 -9.0191e-006 -5.27751e-005 27.4107 -12.2924 8.1261 -174.238 -21.519 -74.6194 -18.2678 -12.4722 61.0001 -20.267 -3.18055e-015 -1.59028e-015 -24.8197 -46.2695 -26.9848 -174.306 17.1592 71.3281 -15.0255 1.04378 -63.7351 -17.9329 6.36111e-015 -0 -71.1768 69.9514 74.7863 1.6267 6.75794 179.517 -9.61891 -3.18055e-015 -7.95139e-016 18.0284 6.02919 -9.62793 90 -1.59028e-015 9.54166e-015 -16.1769 -19.9231 -179.596 -15.4522 9.54167e-015 1.59028e-015 8.10502 -0.486763 0.719086 90 -7.95139e-016 -3.18055e-015 
150.132 89.8441 -139.159 -96.0844 28.656 179.378 0.105343 -3.40421 -0.584599 0.1763 -6.80885 -1.16584 0.1763 -6.80885 -1.16585 -8.30748e-012 -9.0191e-006 -5.27751e-005 26.2203 -12.8025 8.48846 -174.563 -20.9962 -75.1231 -15.8448 -13.132 61.4674 -18.3445 -3.18055e-015 -2.38542e-015 -23.1661 -45.4791 -25.2042 -174.012 17.4498 70.7207 -13.997 -0.695789 -62.8639 -16.4131 -9.54166e-015 1.59028e-015 -69.3319 70.0694 72.8073 2.14493 4.30198 179.777 -9.04103 0 -0 18.2529 6.76579 -10.828 90 -1.59028e-015 6.36111e-015 -16.5154 -19.7312 -178.005 -12.0309 0 -3.97569e-016 7.60756 -0.502164 0.735152 90 1.19271e-015 -9.54166e-015 
151.899 89.7633 -138.81 -96.4097 25.33 179.072 0.131362 -3.71149 -0.371831 0.239298 -7.42329 -0.737272 0.239297 -7.42329 -0.737281 -8.30708e-012 -9.0191e-006 -5.27751e-005 24.6218 -12.7937 8.69924 -174.839 -20.529 -75.5556 -14.4402 -13.3936 61.3037 -16.8247 1.27222e-014 -0 -21.1914 -44.4219 -23.0864 -173.721 17.8009 70.2051 -14.0427 -2.7669 -62.2079 -14.8562 -9.54166e-015 3.18055e-015 -64.7599 70.6923 67.8966 2.63616 3.95814 179.91 -9.15324 3.18055e-015 3.97569e-016 18.4602 6.90859 -11.0594 90 -1.59028e-015 9.54166e-015 -17.359 -18.5806 -176.63 -10.1816 3.18056e-015 2.5842e-015 6.65151 -0.532485 0.775072 90 0 -0 
153.708 89.682 -138.408 -96.5013 22.6841 178.706 0.209989 -3.96222 -0.169305 0.409701 -7.92456 -0.325014 0.4097 -7.92456 -0.325023 -8.30569e-012 -9.0191e-006 -5.27751e-005 22.7926 -12.3296 8.61777 -175.01 -20.1591 -75.7839 -13.7294 -13.6655 60.7815 -15.4076 6.36111e-015 1.19271e-015 -19.7279 -42.9932 -21.4288 -173.494 18.085 69.8298 -14.3774 -4.64369 -61.9073 -13.0788 1.27222e-014 1.11319e-014 -60.7661 70.8777 63.6557 3.12902 5.43811 179.846 -9.95229 -3.18055e-015 -0 18.7785 6.59483 -10.5446 90 3.18055e-015 -0 -18.4751 -17.1159 -175.668 -9.95548 -6.36111e-015 1.39149e-015 6.30027 -1.48042 2.24924 90 -1.39149e-015 -3.18055e-015 
